# xmcd
#
# Track frame offsets:
#	150
#	20170
#	38092
#	51307
#	68325
#	83305
#	96637
#	117637
#	134165
#	142637
#	161517
#	172515
#	191695
#	209330
#	225747
#	245240
#
# Disc length: 3478 seconds
#
# Revision: 108
# Processed by: cddbd v1.5.2PL0 Copyright (c) Steve Scherf et al.
# Submitted via: audiograbber 1.83.01
#
DISCID=dc0d9410
DTITLE=Enya - Paint The Sky With Stars - The Best Of Enya
DYEAR=1997
DGENRE=Easy Listening
TTITLE0=Orinoco Flow
TTITLE1=Caribbean Blue
TTITLE2=Book Of Days
TTITLE3=Anywhere Is
TTITLE4=Only If...
TTITLE5=The Celts
TTITLE6=China Roses
TTITLE7=Shepherd Moons
TTITLE8=Ebudae
TTITLE9=Storms In Africa
TTITLE10=Watermark
TTITLE11=Paint The Sky With Stars
TTITLE12=Marble Halls
TTITLE13=On My Way Home
TTITLE14=The Memory Of Trees
TTITLE15=Boadicea
EXTD=
EXTT0=
EXTT1=
EXTT2=
EXTT3=
EXTT4=
EXTT5=
EXTT6=
EXTT7=
EXTT8=
EXTT9=
EXTT10=
EXTT11=
EXTT12=
EXTT13=
EXTT14=
EXTT15=
PLAYORDER=
